PathFileType	4	(X/Y/Z)	C:\Users\dbl\Desktop\20210112(1)\20210112\bx_y_0_501.trc
DataRate	CameraRate	NumFrames	NumMarkers	Units	OrigDataRate	OrigDataStartFrame	OrigNumFrames
50.00	50.00	       5	43	mm	50.00	151	       603
Frame#	Time	Top.Head			R.Acromium			L.Acromium			Sternum			R.ASIS			L.ASIS			V.Sacral			R.Thigh.Upper			R.Thigh.Front			R.Thigh.Rear			R.Knee.Lat			R.Knee.Med			R.Shank.Upper			R.Shank.Front			R.Shank.Rear			R.Ankle.Lat			R.Midfoot.Lat			R.Toe.Lat			R.Toe.Tip			R.Toe.Med			R.Ankle.Med			R.Midfoot.Sup			R.Heel			L.Thigh.Upper			L.Thigh.Front			L.Thigh.Rear			L.Knee.Lat			L.Knee.Med			L.Shank.Upper			L.Shank.Front			L.Shank.Rear			L.Ankle.Lat			L.Midfoot.Lat			L.Toe.Lat			L.Toe.Tip			L.Toe.Med			L.Ankle.Med			L.Midfoot.Sup			L.Heel			origin1 front left			origin2 front right			origin 3 back right			origin 4 back leftt			
		X1	Y1	Z1	X2	Y2	Z2	X3	Y3	Z3	X4	Y4	Z4	X5	Y5	Z5	X6	Y6	Z6	X7	Y7	Z7	X8	Y8	Z8	X9	Y9	Z9	X10	Y10	Z10	X11	Y11	Z11	X12	Y12	Z12	X13	Y13	Z13	X14	Y14	Z14	X15	Y15	Z15	X16	Y16	Z16	X17	Y17	Z17	X18	Y18	Z18	X19	Y19	Z19	X20	Y20	Z20	X21	Y21	Z21	X22	Y22	Z22	X23	Y23	Z23	X24	Y24	Z24	X25	Y25	Z25	X26	Y26	Z26	X27	Y27	Z27	X28	Y28	Z28	X29	Y29	Z29	X30	Y30	Z30	X31	Y31	Z31	X32	Y32	Z32	X33	Y33	Z33	X34	Y34	Z34	X35	Y35	Z35	X36	Y36	Z36	X37	Y37	Z37	X38	Y38	Z38	X39	Y39	Z39	X40	Y40	Z40	X41	Y41	Z41	X42	Y42	Z42	X43	Y43	Z43	

151	3.000	-608.68451	133.87140	1846.53210	-662.25854	-59.60563	1550.49451	-685.34180	300.14655	1540.53345	-595.59515	118.42566	1431.38977	-598.87775	6.94699	1049.62256	-589.58405	229.42262	1068.18811	-795.47540	105.46322	1060.52368	-661.97223	-60.80758	864.85449	-593.01056	2.80985	801.15192	-691.06671	-47.59288	732.26349	-714.32013	-23.18065	613.03003	-694.76886	84.60153	570.21619	-722.06488	-19.87729	567.87152	-672.11523	23.95185	520.00226	-767.02167	-30.39666	488.78146	-766.49768	-4.25432	208.53183	-663.23602	-65.88644	164.27705	-622.35065	-76.54294	159.63130	-559.42822	-39.34208	165.08574	-603.46130	20.53200	165.73434	-716.97321	79.09903	215.90764	-674.87836	57.00638	156.88081	-794.53003	56.08158	175.16061	-642.32813	291.91644	879.01172	-586.87195	222.57547	814.02313	-690.76117	272.88098	716.32068	-730.74799	254.66541	638.02405	-693.38397	148.72127	572.33502	-734.04327	250.06384	574.80640	-679.00732	210.66856	532.42175	-773.84308	258.44745	501.52963	-771.75708	222.41978	205.22684	-667.42871	299.37622	159.63068	-630.02386	306.53070	161.76357	-560.51306	261.13651	166.04602	-594.69592	222.40794	173.49152	-711.81360	152.63835	216.55183	-675.35388	172.82462	157.52345	-796.35052	172.05290	184.26488	-528.05591	304.44348	146.62265	-517.77020	-72.50371	143.05286	-876.03607	-78.67130	141.45557	-882.52234	296.22220	144.73059	
152	3.020	-603.60760	133.66168	1845.73755	-660.60876	-59.75063	1550.57874	-683.87360	299.83762	1540.51306	-594.68915	118.23501	1431.12109	-599.76245	6.86502	1049.59106	-590.51642	229.42638	1068.26013	-796.36639	105.36277	1060.68726	-662.90454	-60.80806	864.77069	-593.85486	2.75555	801.34271	-691.92383	-47.80533	732.40240	-714.81866	-23.20576	613.02246	-695.15247	84.60012	570.19904	-722.51550	-20.02484	567.90436	-672.45721	23.77450	520.07733	-767.29791	-30.43229	488.76611	-766.52301	-4.28036	208.45982	-663.23090	-65.92117	164.28923	-622.37964	-76.55944	159.59904	-559.42047	-39.33998	165.07808	-603.46497	20.50041	165.79379	-717.02026	79.07100	215.89101	-674.88586	56.99105	156.90068	-794.52905	56.06962	175.13951	-645.18866	289.84354	877.41986	-587.65753	222.60046	814.13818	-691.50525	273.07471	716.49359	-731.34747	254.57953	637.90710	-693.91205	148.58482	572.20288	-734.56531	250.02133	574.71808	-679.40234	210.71445	532.51263	-774.23535	258.45642	501.40872	-771.76062	222.47275	205.12505	-667.41846	299.37628	159.65939	-630.03278	306.51450	161.77794	-560.54523	261.10306	166.05513	-594.68585	222.38229	173.48628	-711.91772	152.69714	216.56584	-675.36792	172.88380	157.53346	-796.37073	172.05003	184.25117	-528.07611	304.45868	146.64481	-517.75586	-72.47855	143.01762	-876.06158	-78.62630	141.49290	-882.54047	296.21515	144.71278	
153	3.040	-598.12286	133.40564	1844.80945	-658.93781	-59.88577	1550.61682	-682.29419	299.56247	1540.56433	-593.79767	117.99825	1430.82544	-600.61621	6.74183	1049.61353	-591.47168	229.34428	1068.21777	-797.28986	105.26695	1060.86511	-663.91180	-60.86563	864.76611	-594.68420	2.68604	801.50537	-692.78473	-47.99605	732.50104	-715.32227	-23.26369	613.08551	-695.40466	84.53301	570.13959	-722.99695	-20.09840	567.89642	-672.78650	23.66012	520.15717	-767.56232	-30.48165	488.68359	-766.55133	-4.30335	208.39212	-663.23352	-65.95844	164.29677	-622.43164	-76.56019	159.58859	-559.40607	-39.33696	165.06572	-603.47485	20.45019	165.86711	-717.05566	79.05620	215.85979	-674.91754	56.96650	156.96431	-794.55530	56.08132	175.14005	-647.25580	288.71924	876.56213	-588.55206	222.58801	814.24316	-692.26410	273.25482	716.60681	-731.93616	254.52710	637.78534	-694.39038	148.47780	572.08527	-735.05573	250.02144	574.68195	-679.80609	210.72704	532.57172	-774.66022	258.39291	501.29968	-771.79626	222.50299	204.99927	-667.42706	299.36789	159.67300	-630.04529	306.50455	161.78810	-560.57489	261.07944	166.09326	-594.69409	222.36809	173.48045	-712.00903	152.72049	216.61162	-675.37769	172.91563	157.54106	-796.38885	172.04472	184.24922	-528.08887	304.51117	146.70477	-517.73724	-72.48797	142.99219	-876.07544	-78.57019	141.53555	-882.55188	296.20770	144.70186	
154	3.060	-592.18823	133.12392	1843.72729	-657.25842	-60.01452	1550.63013	-680.66083	299.31158	1540.69873	-592.84674	117.80024	1430.53088	-601.50153	6.60891	1049.65796	-592.42303	229.20221	1068.12854	-798.22546	105.17715	1061.04822	-664.96832	-60.98376	864.83313	-595.53046	2.55918	801.60706	-693.63544	-48.11028	732.50806	-715.86578	-23.33998	613.17822	-695.53040	84.39405	570.01544	-723.52350	-20.15886	567.89600	-673.16272	23.64202	520.25604	-767.87720	-30.52908	488.56207	-766.58179	-4.31601	208.33186	-663.24219	-65.99542	164.29327	-622.50031	-76.54041	159.59308	-559.39709	-39.33747	165.06219	-603.47784	20.40580	165.93253	-717.08691	79.05287	215.82256	-674.95551	56.93890	157.04568	-794.60852	56.09605	175.17218	-648.52600	288.43704	876.36780	-589.52417	222.53592	814.33746	-693.05060	273.34250	716.63525	-732.52728	254.53500	637.74243	-694.73602	148.46092	571.96667	-735.49774	250.06718	574.71838	-680.25500	210.72900	532.56464	-775.10211	258.28873	501.21106	-771.85345	222.50133	204.87946	-667.44043	299.35492	159.65771	-630.05145	306.50388	161.78789	-560.58862	261.07101	166.13336	-594.71802	222.37607	173.47450	-712.08209	152.73093	216.67676	-675.40448	172.93799	157.52058	-796.40582	172.04150	184.25217	-528.07745	304.57840	146.76825	-517.71765	-72.51925	142.98575	-876.07300	-78.54414	141.56821	-882.54999	296.19400	144.69812	
155	3.080	-585.77271	132.81680	1842.46729	-655.57068	-60.14823	1550.62463	-679.01672	299.08023	1540.89917	-591.78510	117.69677	1430.24597	-602.46149	6.48676	1049.68628	-593.37329	229.09526	1068.08154	-799.16937	105.07390	1061.22437	-666.02625	-61.08631	864.87726	-596.40417	2.40063	801.68494	-694.49127	-48.16592	732.45013	-716.48096	-23.39510	613.22601	-695.59680	84.24033	569.84839	-724.04346	-20.22285	567.90991	-673.62299	23.70282	520.33899	-768.26746	-30.55908	488.46518	-766.61377	-4.31420	208.28114	-663.26147	-66.02892	164.27684	-622.55792	-76.51084	159.61711	-559.40027	-39.34050	165.07201	-603.45953	20.38570	165.97874	-717.11420	79.05241	215.79610	-674.97235	56.91705	157.09859	-794.66437	56.09246	175.20946	-649.40070	288.50381	876.48267	-590.51178	222.45424	814.40546	-693.87439	273.33249	716.61011	-733.15894	254.60115	637.82330	-694.96759	148.55280	571.86682	-735.95972	250.12624	574.78448	-680.77264	210.73459	532.52893	-775.55658	258.20517	501.14993	-771.91290	222.47575	204.80397	-667.44678	299.34445	159.61909	-630.04346	306.51361	161.76944	-560.58856	261.07614	166.16586	-594.74768	222.39871	173.47040	-712.13074	152.73906	216.73785	-675.42535	172.94862	157.49037	-796.41412	172.04355	184.25201	-528.05219	304.61905	146.81076	-517.70679	-72.55374	142.99005	-876.06708	-78.55608	141.59253	-882.53357	296.18262	144.70636	
